# xmcd
#
# Track frame offsets:
#	150
#	17800
#	34755
#	50812
#	66172
#	82290
#	100932
#	119162
#	137817
#	152570
#	169432
#	185295
#
# Disc length: 2683 seconds
#
# Revision: 1
# Processed by: cddbd v1.5.1PL0 Copyright (c) Steve Scherf et al.
# Submitted via: CDex 1.50Beta5
#
DISCID=b00a790c
DTITLE=ファンタスティック・サウンド(OR) - ミッフィーのミュージカル・ドリーム
DYEAR=1994
DGENRE=
TTITLE0=となりのトトロ
TTITLE1=サムホエア・アウト・ゼア
TTITLE2=メモリー
TTITLE3=君をのせて
TTITLE4=エーデルワイス
TTITLE5=風の谷のナウシカ
TTITLE6=ネバーエンディング・ストーリー
TTITLE7=スタンド・バイ・ミー
TTITLE8=やさしさに包まれたなら
TTITLE9=小さな恋のメロディー
TTITLE10=風の谷のナウシカ
TTITLE11=E.T.のテーマ
EXTD=
EXTT0=
EXTT1=
EXTT2=
EXTT3=
EXTT4=
EXTT5=
EXTT6=
EXTT7=
EXTT8=
EXTT9=
EXTT10=
EXTT11=
PLAYORDER=
